<svg id="Layer_1" data-name="Layer 1" xmlns="http://www.w3.org/2000/svg" viewBox="0 0 566.93 566.93"><defs><style>.cls-1{fill:#fff;}.cls-2{fill:#026fb7;}.cls-3{fill:#16a9e2;}.cls-4{fill:#80ccf1;}</style></defs><rect class="cls-1" width="566.93" height="566.93" rx="127.19"/><path class="cls-2" d="M172.3,66.47C117.16,131.45,76,195.93,49.3,256c18.82,42.52,28.51,87.35,28.23,131.4C102.36,346.77,138,307,182.85,270c9.27-65,6.08-134.92-10.55-203.51"/><path class="cls-3" d="M393.47,145.29c-83.7,35.09-154.86,78-210.68,124.34-7.65,54.18-23.69,104.13-47.13,146.76,41.6-25.65,91.69-44.51,147.88-55.61,43.95-59.28,82.14-132.59,109.93-215.49"/><path class="cls-4" d="M517.63,358.32c-69.51,63.27-139.91,110.94-205.91,142.13-49.13-19-98.57-27.78-145-26,41.16-27.25,80.77-65.74,116.62-113.58q20.28-4,41.52-6.6C384.51,347,449.67,347.9,517.63,358.32Z"/></svg>